<svg width="395" height="58" viewBox="0 0 395 58" fill="none" xmlns="http://www.w3.org/2000/svg">
<path d="M10.1932 47H1.125L12.9034 12.0909H24.1364L35.9148 47H26.8466L18.6477 20.8864H18.375L10.1932 47ZM8.98295 33.2614H27.9375V39.6705H8.98295V33.2614ZM48.0085 12.0909V47H39.6733V12.0909H48.0085ZM53.3139 47V20.8182H61.2401V25.625H61.5298C62.0753 24.0341 62.9957 22.7784 64.2912 21.858C65.5866 20.9375 67.1321 20.4773 68.9276 20.4773C70.7457 20.4773 72.3026 20.9432 73.598 21.875C74.8935 22.8068 75.7173 24.0568 76.0696 25.625H76.3423C76.831 24.0682 77.7855 22.8239 79.206 21.892C80.6264 20.9489 82.3026 20.4773 84.2344 20.4773C86.7116 20.4773 88.723 21.2727 90.2685 22.8636C91.8139 24.4432 92.5866 26.6136 92.5866 29.375V47H84.2514V31.2841C84.2514 29.9773 83.9162 28.983 83.2457 28.3011C82.5753 27.608 81.706 27.2614 80.6378 27.2614C79.4901 27.2614 78.5866 27.6364 77.9276 28.3864C77.2798 29.125 76.956 30.1193 76.956 31.3693V47H68.9446V31.1989C68.9446 29.983 68.6151 29.0227 67.956 28.3182C67.2969 27.6136 66.4276 27.2614 65.348 27.2614C64.6207 27.2614 63.9787 27.4375 63.4219 27.7898C62.8651 28.1307 62.4276 28.6193 62.1094 29.2557C61.8026 29.892 61.6491 30.642 61.6491 31.5057V47H53.3139ZM109.973 47.4943C107.223 47.4943 104.859 46.9318 102.882 45.8068C100.916 44.6705 99.3991 43.0909 98.331 41.0682C97.2741 39.0341 96.7457 36.6761 96.7457 33.9943C96.7457 31.3011 97.2741 28.9432 98.331 26.9205C99.3991 24.8864 100.916 23.3068 102.882 22.1818C104.859 21.0455 107.223 20.4773 109.973 20.4773C112.723 20.4773 115.081 21.0455 117.047 22.1818C119.024 23.3068 120.541 24.8864 121.598 26.9205C122.666 28.9432 123.2 31.3011 123.2 33.9943C123.2 36.6761 122.666 39.0341 121.598 41.0682C120.541 43.0909 119.024 44.6705 117.047 45.8068C115.081 46.9318 112.723 47.4943 109.973 47.4943ZM110.024 41.2045C111.024 41.2045 111.871 40.8977 112.564 40.2841C113.257 39.6705 113.786 38.8182 114.149 37.7273C114.524 36.6364 114.712 35.375 114.712 33.9432C114.712 32.4886 114.524 31.2159 114.149 30.125C113.786 29.0341 113.257 28.1818 112.564 27.5682C111.871 26.9545 111.024 26.6477 110.024 26.6477C108.99 26.6477 108.115 26.9545 107.399 27.5682C106.695 28.1818 106.155 29.0341 105.78 30.125C105.416 31.2159 105.234 32.4886 105.234 33.9432C105.234 35.375 105.416 36.6364 105.78 37.7273C106.155 38.8182 106.695 39.6705 107.399 40.2841C108.115 40.8977 108.99 41.2045 110.024 41.2045ZM133.624 20.8182L137.936 29.4432L142.402 20.8182H150.805L143.493 33.9091L151.078 47H142.743L137.936 38.3068L133.249 47H124.794L132.396 33.9091L125.169 20.8182H133.624ZM161.851 47.4432C160.18 47.4432 158.697 47.1648 157.402 46.608C156.118 46.0398 155.101 45.1875 154.351 44.0511C153.612 42.9034 153.243 41.4659 153.243 39.7386C153.243 38.2841 153.499 37.0568 154.01 36.0568C154.521 35.0568 155.226 34.2443 156.124 33.6193C157.021 32.9943 158.055 32.5227 159.226 32.2045C160.396 31.875 161.646 31.6534 162.976 31.5398C164.464 31.4034 165.663 31.2614 166.572 31.1136C167.482 30.9545 168.141 30.733 168.55 30.4489C168.97 30.1534 169.18 29.7386 169.18 29.2045V29.1193C169.18 28.2443 168.879 27.5682 168.277 27.0909C167.675 26.6136 166.862 26.375 165.839 26.375C164.737 26.375 163.851 26.6136 163.18 27.0909C162.51 27.5682 162.084 28.2273 161.902 29.0682L154.214 28.7955C154.442 27.2045 155.027 25.7841 155.97 24.5341C156.925 23.2727 158.232 22.2841 159.891 21.5682C161.561 20.8409 163.567 20.4773 165.908 20.4773C167.578 20.4773 169.118 20.6761 170.527 21.0739C171.936 21.4602 173.163 22.0284 174.209 22.7784C175.254 23.517 176.061 24.4261 176.629 25.5057C177.209 26.5852 177.499 27.8182 177.499 29.2045V47H169.658V43.3523H169.453C168.987 44.2386 168.391 44.9886 167.663 45.6023C166.947 46.2159 166.101 46.6761 165.124 46.983C164.158 47.2898 163.067 47.4432 161.851 47.4432ZM164.425 41.9886C165.322 41.9886 166.129 41.8068 166.845 41.4432C167.572 41.0795 168.152 40.5795 168.584 39.9432C169.016 39.2955 169.232 38.5455 169.232 37.6932V35.2045C168.993 35.3295 168.703 35.4432 168.362 35.5455C168.033 35.6477 167.669 35.7443 167.271 35.8352C166.874 35.9261 166.464 36.0057 166.044 36.0739C165.624 36.142 165.22 36.2045 164.834 36.2614C164.05 36.3864 163.379 36.5795 162.822 36.8409C162.277 37.1023 161.857 37.4432 161.561 37.8636C161.277 38.2727 161.135 38.7614 161.135 39.3295C161.135 40.1932 161.442 40.8523 162.055 41.3068C162.68 41.7614 163.47 41.9886 164.425 41.9886ZM182.595 47V20.8182H190.692V25.5909H190.964C191.442 23.8636 192.22 22.5795 193.3 21.7386C194.379 20.8864 195.635 20.4602 197.067 20.4602C197.453 20.4602 197.851 20.4886 198.26 20.5455C198.669 20.5909 199.05 20.6648 199.402 20.767V28.0114C199.004 27.875 198.482 27.767 197.834 27.6875C197.197 27.608 196.629 27.5682 196.129 27.5682C195.141 27.5682 194.249 27.7898 193.453 28.233C192.669 28.6648 192.05 29.2727 191.595 30.0568C191.152 30.8295 190.93 31.7386 190.93 32.7841V47H182.595ZM202.798 47V20.8182H211.134V47H202.798ZM206.974 17.767C205.804 17.767 204.798 17.3807 203.957 16.608C203.116 15.8239 202.696 14.8807 202.696 13.7784C202.696 12.6875 203.116 11.7557 203.957 10.983C204.798 10.1989 205.804 9.80682 206.974 9.80682C208.156 9.80682 209.162 10.1989 209.991 10.983C210.832 11.7557 211.253 12.6875 211.253 13.7784C211.253 14.8807 210.832 15.8239 209.991 16.608C209.162 17.3807 208.156 17.767 206.974 17.767ZM231.32 20.8182V26.9545H214.479V20.8182H231.32ZM217.99 47V19.4886C217.99 17.4659 218.371 15.7898 219.132 14.4602C219.893 13.1193 220.95 12.1193 222.303 11.4602C223.655 10.7898 225.217 10.4545 226.99 10.4545C228.149 10.4545 229.24 10.5455 230.263 10.7273C231.297 10.8977 232.064 11.0511 232.564 11.1875L231.234 17.2898C230.928 17.1875 230.553 17.1023 230.109 17.0341C229.678 16.9659 229.268 16.9318 228.882 16.9318C227.905 16.9318 227.234 17.1477 226.871 17.5795C226.507 18.0114 226.325 18.6023 226.325 19.3523V47H217.99ZM257.438 28.8125L249.784 29.017C249.705 28.4716 249.489 27.9886 249.136 27.5682C248.784 27.1364 248.324 26.8011 247.756 26.5625C247.199 26.3125 246.551 26.1875 245.812 26.1875C244.847 26.1875 244.023 26.3807 243.341 26.767C242.67 27.1534 242.341 27.6761 242.352 28.3352C242.341 28.8466 242.545 29.2898 242.966 29.6648C243.398 30.0398 244.165 30.3409 245.267 30.5682L250.312 31.5227C252.926 32.0227 254.869 32.8523 256.142 34.0114C257.426 35.1705 258.074 36.7045 258.085 38.6136C258.074 40.4091 257.54 41.9716 256.483 43.3011C255.438 44.6307 254.006 45.6648 252.188 46.4034C250.369 47.1307 248.29 47.4943 245.949 47.4943C242.21 47.4943 239.261 46.7273 237.102 45.1932C234.955 43.6477 233.727 41.5795 233.42 38.9886L241.653 38.7841C241.835 39.7386 242.307 40.4659 243.068 40.9659C243.83 41.4659 244.801 41.7159 245.983 41.7159C247.051 41.7159 247.92 41.517 248.591 41.1193C249.261 40.7216 249.602 40.1932 249.614 39.5341C249.602 38.9432 249.341 38.4716 248.83 38.1193C248.318 37.7557 247.517 37.4716 246.426 37.267L241.858 36.3977C239.233 35.9205 237.278 35.0398 235.994 33.7557C234.71 32.4602 234.074 30.8125 234.085 28.8125C234.074 27.0625 234.54 25.5682 235.483 24.3295C236.426 23.0795 237.767 22.125 239.506 21.4659C241.244 20.8068 243.295 20.4773 245.659 20.4773C249.205 20.4773 252 21.2216 254.045 22.7102C256.091 24.1875 257.222 26.2216 257.438 28.8125Z" fill="white"/>
<rect x="279.5" y="20.9026" width="15" height="15" rx="3.5" fill="#18181B" stroke="#27272A"/>
<rect x="299.5" y="20.9026" width="15" height="15" rx="3.5" fill="#C2410C" stroke="#C2410C"/>
<rect x="319.5" y="20.9026" width="15" height="15" rx="3.5" fill="#EA580C" stroke="#EA580C"/>
<rect x="339.5" y="20.9026" width="15" height="15" rx="3.5" fill="#F97316" stroke="#F97316"/>
<rect x="359.5" y="20.9026" width="15" height="15" rx="3.5" fill="#FB923C" stroke="#F59E0B"/>
<rect x="379.5" y="20.9026" width="15" height="15" rx="3.5" fill="#FB923C" stroke="#FB923C"/>
</svg>
